<svg width="560" height="360" viewBox="0 0 560 360" fill="none" xmlns="http://www.w3.org/2000/svg">
  <rect width="560" height="360" fill="#F2F2F2"/>
  <path d="M0 80C93.3333 80 93.3333 120 186.667 120C280 120 280 80 373.333 80C466.667 80 466.667 120 560 120" stroke="#E0E0E0" stroke-width="6"/>
  <path d="M0 120C93.3333 120 93.3333 160 186.667 160C280 160 280 120 373.333 120C466.667 120 466.667 160 560 160" stroke="#D8D8D8" stroke-width="6"/>
  <path d="M0 160C93.3333 160 93.3333 200 186.667 200C280 200 280 160 373.333 160C466.667 160 466.667 200 560 200" stroke="#D0D0D0" stroke-width="6"/>
  <path d="M0 200C93.3333 200 93.3333 240 186.667 240C280 240 280 200 373.333 200C466.667 200 466.667 240 560 240" stroke="#C8C8C8" stroke-width="6"/>
  <path d="M0 240C93.3333 240 93.3333 280 186.667 280C280 280 280 240 373.333 240C466.667 240 466.667 280 560 280" stroke="#E0E0E0" stroke-width="6"/>
  <rect x="185" y="40" width="190" height="40" rx="20" fill="#EBEBEB"/>
  <rect x="215" y="300" width="130" height="20" rx="10" fill="#EBEBEB"/>
</svg> 